<?xml version="1.0" encoding="UTF-8"?><svg id="a" xmlns="http://www.w3.org/2000/svg" viewBox="0 0 512 512"><defs><style>.b{fill:#fff;}</style></defs><g><rect x=".5" y=".5" width="511" height="511"/><path d="m511,1v510H1V1h510m1-1H0v512h512V0h0Z"/></g><g><path class="b" d="m132.01135,190.1261c-7.36977-3.96943-53.32887-3.5189-53.32887-3.5189,0,0-45.98756-.45053-53.36207,3.5189,0,0-4.3346,2.68897-4.32037,32.86519-.01423,30.38015,4.32037,33.09283,4.32037,33.09283,7.37451,3.99314,53.36207,3.53313,53.36207,3.53313,0,0,45.9591.46002,53.32887-3.53313,0,0,4.32986-2.71268,4.31563-33.09283.01423-30.17622-4.31563-32.86519-4.31563-32.86519m344.4253-51.91088l-.48372-.30826c-10.81278-5.94229-48.24969-8.97746-111.30536-8.97746-5.64353,0-9.06284.04742-9.1055.04742-.13753,0-3.60427-.04742-9.24777-.04742-63.09833,0-100.58266,3.03517-111.38597,8.97746l-.4458.30826c-9.02489,5.71466-13.60609,32.89839-13.56342,80.79241,0,5.2167.04742,10.21524.1802,14.95295,6.98089-.09485,13.11762-.14228,17.7842-.14228-.13279-4.55275-.17546-9.4612-.17546-14.81067-.04742-47.45297,4.71399-62.36324,6.4023-66.10978,9.20035-3.12528,42.85753-6.11776,101.20391-6.11776,5.64353,0,9.06284.05217,9.29046.05217,0,0,3.42405-.04742,9.06758-.04742,58.29896,0,91.90871,2.98775,101.11382,6.11776,1.68833,3.74654,6.44974,18.65206,6.44974,66.10504,0,47.84186-4.76141,62.84223-6.44974,66.63619-9.20037,3.17269-42.81486,6.11303-101.06642,6.11303h-2.35701c.13279,4.90844.22762,10.26741.22762,16.16228v1.68831h2.12935c63.05089,0,100.49257-3.03517,111.29588-9.01067l.48846-.31775c8.98219-5.7526,13.51598-33.07386,13.51598-81.2714,0-47.89402-4.58122-75.07302-13.56342-80.79241"/><path class="b" d="m246.32342,284.30646c-1.46067-3.37663-5.40639-15.50782-6.19838-51.58365,5.57712,0,8.99169.04743,8.99169.04743,0,0,91.12148-.89158,105.69502,7.11368,0,0,7.04254,4.43894,8.32773,50.50711h-16.02948c-58.08556,0-91.61469-2.93084-100.78659-6.08457"/><path class="b" d="m363.13948,309.08576c-.14227,60.82669-8.63126,66.2805-8.63126,66.2805-14.70633,8.20444-106.65774,7.25121-106.65774,7.25121,0,0-91.94191.94849-106.69568-7.25121,0,0-8.6692-5.58662-8.6692-67.98779,0-61.99333,8.6692-67.53252,8.6692-67.53252,9.52284-5.23093,51.36076-6.72005,79.74433-7.12317.80621,39.28647,5.36372,61.81312,13.41165,66.9492l.48848.31301c10.86022,6.03714,48.50106,9.1055,111.93608,9.1055h16.40414"/></g></svg>