<svg xmlns="http://www.w3.org/2000/svg" viewBox="0 0 512 512"><defs><style>.b{fill:#fff;}</style></defs><path d="M.5.5h511v511H.5z"/><path d="M511 1v510H1V1h510m1-1H0v512h512V0Z"/><path d="M169.637 210.077c-5.154-2.776-37.296-2.461-37.296-2.461s-32.162-.315-37.32 2.461c0 0-3.03 1.88-3.021 22.985-.01 21.246 3.022 23.143 3.022 23.143 5.157 2.793 37.319 2.471 37.319 2.471s32.142.322 37.296-2.47c0 0 3.028-1.898 3.018-23.144.01-21.104-3.018-22.985-3.018-22.985m240.877-36.304-.338-.216c-7.562-4.156-33.744-6.278-77.843-6.278-3.946 0-6.338.033-6.368.033-.096 0-2.52-.033-6.467-.033-44.129 0-70.344 2.122-77.899 6.278l-.312.216c-6.311 3.996-9.515 23.007-9.486 56.503 0 3.648.034 7.144.127 10.457 4.882-.066 9.173-.1 12.437-.1-.093-3.183-.123-6.616-.123-10.357-.033-33.187 3.297-43.615 4.478-46.235 6.434-2.186 29.973-4.278 70.778-4.278 3.947 0 6.338.036 6.497.036 0 0 2.395-.033 6.342-.033 40.772 0 64.277 2.09 70.715 4.278 1.18 2.62 4.51 13.045 4.51 46.232 0 33.458-3.33 43.949-4.51 46.602-6.435 2.22-29.943 4.276-70.682 4.276h-1.648c.092 3.432.159 7.18.159 11.303v1.18h1.489c44.095 0 70.28-2.122 77.836-6.301l.341-.222c6.282-4.024 9.453-23.13 9.453-56.838 0-33.496-3.204-52.503-9.486-56.503" class="b"/><path d="M249.582 275.943c-1.021-2.361-3.78-10.846-4.335-36.076 3.9 0 6.289.034 6.289.034s63.727-.624 73.919 4.975c0 0 4.925 3.104 5.824 35.322h-11.21c-40.623 0-64.072-2.05-70.487-4.255" class="b"/><path d="M331.279 293.273c-.1 42.54-6.037 46.354-6.037 46.354-10.285 5.737-74.592 5.07-74.592 5.07s-64.3.664-74.619-5.07c0 0-6.062-3.907-6.062-47.548 0-43.356 6.062-47.23 6.062-47.23 6.66-3.658 35.92-4.7 55.77-4.982.564 27.476 3.752 43.23 9.38 46.822l.342.219c7.595 4.222 33.92 6.368 78.283 6.368h11.473" class="b"/></svg>