<svg xmlns="http://www.w3.org/2000/svg" viewBox="0 0 98.894 53.5"><path d="M23.408 12.904c-1.554-.837-11.245-.742-11.245-.742s-9.697-.095-11.252.742c0 0-.914.567-.911 6.93-.003 6.406.911 6.978.911 6.978 1.555.842 11.252.745 11.252.745s9.691.097 11.245-.745c0 0 .913-.572.91-6.978.003-6.363-.91-6.93-.91-6.93M96.034 1.958l-.102-.065C93.652.64 85.758 0 72.462 0c-1.19 0-1.911.01-1.92.01-.029 0-.76-.01-1.95-.01-13.305 0-21.209.64-23.487 1.893l-.094.065c-1.903 1.205-2.869 6.937-2.86 17.036 0 1.1.01 2.154.038 3.153 1.472-.02 2.766-.03 3.75-.03-.028-.96-.037-1.995-.037-3.123-.01-10.006.994-13.15 1.35-13.94 1.94-.659 9.037-1.29 21.34-1.29 1.19 0 1.911.011 1.959.011 0 0 .722-.01 1.912-.01 12.293 0 19.38.63 21.321 1.29.356.79 1.36 3.933 1.36 13.939 0 10.088-1.004 13.251-1.36 14.051-1.94.669-9.028 1.289-21.311 1.289h-.497c.028 1.035.048 2.165.048 3.408v.356h.449c13.295 0 21.19-.64 23.468-1.9l.103-.067c1.894-1.213 2.85-6.974 2.85-17.137 0-10.099-.966-15.83-2.86-17.036"/><path class="i" d="M47.512 32.763c-.308-.712-1.14-3.27-1.307-10.877 1.176 0 1.896.01 1.896.01s19.214-.188 22.287 1.5c0 0 1.485.936 1.756 10.65h-3.38c-12.248 0-19.318-.618-21.252-1.283"/><path class="i" d="M72.144 37.988c-.03 12.826-1.82 13.976-1.82 13.976-3.101 1.73-22.49 1.529-22.49 1.529s-19.387.2-22.498-1.529c0 0-1.828-1.178-1.828-14.336 0-13.072 1.828-14.24 1.828-14.24 2.008-1.103 10.83-1.417 16.815-1.502.17 8.284 1.131 13.034 2.828 14.117l.103.066c2.29 1.273 10.227 1.92 23.603 1.92h3.459"/></svg>